<svg width="387" height="202" viewBox="0 0 387 202" fill="none" xmlns="http://www.w3.org/2000/svg">
<g filter="url(#filter0_d_147_21)">
<path d="M46.2 38.4V13.33C46.2 9.27999 42.92 6 38.87 6H13.36C9.35005 6 6.09003 9.25001 6.09003 13.26C6.09003 13.28 6.09003 13.3 6.09003 13.33C6.06003 65.94 6.03 118.55 6 171.16C6 187.22 6 187.33 20.87 187.23C26.97 187.19 33.07 186.92 39.17 186.67C43.1 186.51 46.2 183.28 46.2 179.34V153.53C46.2 152.08 45.75 150.68 44.96 149.46C36.56 136.55 31.33 120.99 29.37 103.01C26.92 80.55 32.18 59.98 44.77 42.69C45.68 41.44 46.2 39.95 46.2 38.4Z" fill="white"/>
<path fill-rule="evenodd" clip-rule="evenodd" d="M356.603 45.71C356.605 45.7133 356.608 45.7167 356.61 45.72L356.548 45.71H356.603ZM356.603 45.71C346.463 30.495 331.736 19.1484 312.57 12.17C278.52 -0.250025 240.27 11.55 217.43 40.73C211.213 48.6711 205.359 57.0968 199.526 65.4907C196.53 69.8022 193.54 74.1052 190.51 78.33C188.824 80.6996 187.143 83.0734 185.462 85.4473C175.911 98.9325 166.358 112.421 156.01 125.15C142.65 141.57 125.33 147.45 105.65 139.66C90.23 133.56 81.04 120.93 78.17 103.66C75.25 86.08 80.52 71.32 94.24 60.95C109.91 49.1 126.53 48.51 143.28 58.41C147.35 60.82 149.82 60.51 152.63 56.34C156.558 50.503 160.711 44.8383 164.864 39.1737C166.716 36.6475 168.568 34.1213 170.4 31.58C173.86 26.78 173.72 25.61 169.04 22.64C134.9 0.939976 92.94 -0.0500107 59.1 33.53C40.27 52.22 32.01 76.17 34.92 102.83C39.19 142 59.48 169.39 94.59 182.19C128.64 194.61 166.89 182.81 189.73 153.63C195.964 145.666 201.764 137.316 207.566 128.964C210.521 124.71 213.476 120.455 216.49 116.25L216.66 116.02C218.377 113.608 220.089 111.192 221.801 108.775C231.321 95.3397 240.845 81.8977 251.16 69.21C264.52 52.79 281.84 46.91 301.52 54.7C315.702 60.3087 324.604 71.4652 328.179 86.6586L328.18 86.76C328.48 88.05 328.76 89.36 328.98 90.71C331.9 108.29 326.64 123.05 312.91 133.42C297.24 145.27 280.62 145.86 263.87 135.96C259.8 133.55 257.33 133.86 254.52 138.03C250.592 143.867 246.439 149.532 242.286 155.196C240.434 157.722 238.582 160.249 236.75 162.79C233.29 167.59 233.43 168.76 238.11 171.73C272.25 193.43 314.21 194.42 348.05 160.84C366.88 142.15 375.14 118.2 372.23 91.54L372.24 91.53C370.3 73.74 365.05 58.39 356.61 45.72L356.63 45.71H356.603Z" fill="white"/>
</g>
<defs>
<filter id="filter0_d_147_21" x="0" y="0" width="386.8" height="201.243" filterUnits="userSpaceOnUse" color-interpolation-filters="sRGB">
<feFlood flood-opacity="0" result="BackgroundImageFix"/>
<feColorMatrix in="SourceAlpha" type="matrix" values="0 0 0 0 0 0 0 0 0 0 0 0 0 0 0 0 0 0 127 0" result="hardAlpha"/>
<feOffset dx="4" dy="4"/>
<feGaussianBlur stdDeviation="5"/>
<feComposite in2="hardAlpha" operator="out"/>
<feColorMatrix type="matrix" values="0 0 0 0 0 0 0 0 0 0 0 0 0 0 0 0 0 0 0.25 0"/>
<feBlend mode="normal" in2="BackgroundImageFix" result="effect1_dropShadow_147_21"/>
<feBlend mode="normal" in="SourceGraphic" in2="effect1_dropShadow_147_21" result="shape"/>
</filter>
</defs>
</svg>
